<?xml version="1.0" encoding="UTF-8" standalone="no"?>
<svg
   xmlns:ooo="http://xml.openoffice.org/svg/export"
   xmlns:dc="http://purl.org/dc/elements/1.1/"
   xmlns:cc="http://creativecommons.org/ns#"
   xmlns:rdf="http://www.w3.org/1999/02/22-rdf-syntax-ns#"
   xmlns:svg="http://www.w3.org/2000/svg"
   xmlns="http://www.w3.org/2000/svg"
   xmlns:sodipodi="http://sodipodi.sourceforge.net/DTD/sodipodi-0.dtd"
   xmlns:inkscape="http://www.inkscape.org/namespaces/inkscape"
   version="1.2"
   width="173.12389"
   height="154.45276"
   viewBox="0 0 4885.9408 4359.0002"
   preserveAspectRatio="xMidYMid"
   xml:space="preserve"
   id="svg3415"
   inkscape:version="0.48.5 r10040"
   sodipodi:docname="previous.svg"
   style="fill-rule:evenodd;stroke-width:28.22200012;stroke-linejoin:round"><metadata
     id="metadata3486"><rdf:RDF><cc:Work
         rdf:about=""><dc:format>image/svg+xml</dc:format><dc:type
           rdf:resource="http://purl.org/dc/dcmitype/StillImage" /></cc:Work></rdf:RDF></metadata><sodipodi:namedview
     pagecolor="#ffffff"
     bordercolor="#666666"
     borderopacity="1"
     objecttolerance="10"
     gridtolerance="10"
     guidetolerance="10"
     inkscape:pageopacity="0"
     inkscape:pageshadow="2"
     inkscape:window-width="2560"
     inkscape:window-height="1420"
     id="namedview3484"
     showgrid="false"
     fit-margin-top="0"
     fit-margin-left="0"
     fit-margin-right="0"
     fit-margin-bottom="0"
     inkscape:zoom="0.22425739"
     inkscape:cx="220.23425"
     inkscape:cy="368.23818"
     inkscape:window-x="-3"
     inkscape:window-y="-3"
     inkscape:window-maximized="1"
     inkscape:current-layer="svg3415" /><defs
     class="ClipPathGroup"
     id="defs3417"><clipPath
       id="presentation_clip_path"
       clipPathUnits="userSpaceOnUse"><rect
         x="0"
         y="0"
         width="21000"
         height="29700"
         id="rect3420" /></clipPath></defs><defs
     class="TextShapeIndex"
     id="defs3422"><g
       ooo:slide="id1"
       ooo:id-list="id3 id4 id5"
       id="g3424" /></defs><defs
     class="EmbeddedBulletChars"
     id="defs3426"><g
       id="bullet-char-template(57356)"
       transform="scale(4.8828125e-4,-4.8828125e-4)"><path
         d="M 580,1141 1163,571 580,0 -4,571 580,1141 z"
         id="path3429"
         inkscape:connector-curvature="0" /></g><g
       id="bullet-char-template(57354)"
       transform="scale(4.8828125e-4,-4.8828125e-4)"><path
         d="m 8,1128 1129,0 L 1137,0 8,0 8,1128 z"
         id="path3432"
         inkscape:connector-curvature="0" /></g><g
       id="bullet-char-template(10146)"
       transform="scale(4.8828125e-4,-4.8828125e-4)"><path
         d="M 174,0 602,739 174,1481 1456,739 174,0 z m 1184,739 -1049,607 350,-607 699,0 z"
         id="path3435"
         inkscape:connector-curvature="0" /></g><g
       id="bullet-char-template(10132)"
       transform="scale(4.8828125e-4,-4.8828125e-4)"><path
         d="M 2015,739 1276,0 717,0 l 543,543 -1086,0 0,393 1086,0 -543,545 557,0 741,-742 z"
         id="path3438"
         inkscape:connector-curvature="0" /></g><g
       id="bullet-char-template(10007)"
       transform="scale(4.8828125e-4,-4.8828125e-4)"><path
         d="m 0,-2 c -7,16 -16,29 -25,39 l 381,530 c -94,256 -141,385 -141,387 0,25 13,38 40,38 9,0 21,-2 34,-5 21,4 42,12 65,25 l 27,-13 111,-251 280,301 64,-25 24,25 c 21,-10 41,-24 62,-43 C 886,937 835,863 770,784 769,783 710,716 594,584 L 774,223 c 0,-27 -21,-55 -63,-84 l 16,-20 C 717,90 699,76 672,76 641,76 570,178 457,381 L 164,-76 c -22,-34 -53,-51 -92,-51 -42,0 -63,17 -64,51 -7,9 -10,24 -10,44 0,9 1,19 2,30 z"
         id="path3441"
         inkscape:connector-curvature="0" /></g><g
       id="bullet-char-template(10004)"
       transform="scale(4.8828125e-4,-4.8828125e-4)"><path
         d="M 285,-33 C 182,-33 111,30 74,156 52,228 41,333 41,471 c 0,78 14,145 41,201 34,71 87,106 158,106 53,0 88,-31 106,-94 l 23,-176 c 8,-64 28,-97 59,-98 l 735,706 c 11,11 33,17 66,17 42,0 63,-15 63,-46 l 0,-122 c 0,-36 -10,-64 -30,-84 L 442,47 C 390,-6 338,-33 285,-33 z"
         id="path3444"
         inkscape:connector-curvature="0" /></g><g
       id="bullet-char-template(9679)"
       transform="scale(4.8828125e-4,-4.8828125e-4)"><path
         d="M 813,0 C 632,0 489,54 383,161 276,268 223,411 223,592 c 0,181 53,324 160,431 106,107 249,161 430,161 179,0 323,-54 432,-161 108,-107 162,-251 162,-431 0,-180 -54,-324 -162,-431 C 1136,54 992,0 813,0 z"
         id="path3447"
         inkscape:connector-curvature="0" /></g><g
       id="bullet-char-template(8226)"
       transform="scale(4.8828125e-4,-4.8828125e-4)"><path
         d="m 346,457 c -73,0 -137,26 -191,78 -54,51 -81,114 -81,188 0,73 27,136 81,188 54,52 118,78 191,78 73,0 134,-26 185,-79 51,-51 77,-114 77,-187 0,-75 -25,-137 -76,-188 -50,-52 -112,-78 -186,-78 z"
         id="path3450"
         inkscape:connector-curvature="0" /></g><g
       id="bullet-char-template(8211)"
       transform="scale(4.8828125e-4,-4.8828125e-4)"><path
         d="m -4,459 1139,0 0,147 -1139,0 0,-147 z"
         id="path3453"
         inkscape:connector-curvature="0" /></g></defs><defs
     class="TextEmbeddedBitmaps"
     id="defs3455" /><g
     id="g3457"
     transform="translate(-4284.5001,-20883.5)"><g
       id="id2"
       class="Master_Slide"><g
         id="bg-id2"
         class="Background" /><g
         id="bo-id2"
         class="BackgroundObjects" /></g></g><g
     class="SlideGroup"
     id="g3462"
     transform="translate(-4284.5001,-20883.5)"><g
       id="g3464"><g
         id="id1"
         class="Slide"
         clip-path="url(#presentation_clip_path)"><g
           class="Page"
           id="g3467"><g
             class="com.sun.star.drawing.OpenFreeHandShape"
             id="g3469"><g
               id="id3"><path
                 d="m 6709,21213 c -30,190 -14,381 21,573 33,182 0,369 0,555 0,212 0,427 0,639 0,185 -2,371 0,556 2,190 13,380 21,572 7,191 64,382 21,572 -26,120 158,644 -210,219 -157,-181 -301,-367 -441,-555 -126,-170 -216,-359 -356,-522 -168,-194 -477,-289 -631,-488 -136,-177 -535,-321 -294,-555 215,-209 509,-361 714,-573 175,-180 289,-392 442,-588 137,-176 293,-396 588,-421 l 41,-34"
                 id="path3472"
                 inkscape:connector-curvature="0"
                 style="fill:none;stroke:#000000;stroke-width:212;stroke-linejoin:round" /></g></g><g
             class="com.sun.star.drawing.OpenFreeHandShape"
             id="g3474"><g
               id="id4"><path
                 d="m 8978,21213 c -30,190 -14,381 21,573 33,182 0,369 0,555 0,212 0,427 0,639 0,185 -2,371 0,556 2,190 13,380 21,572 7,191 64,382 21,572 -26,120 158,644 -210,219 -157,-181 -301,-367 -441,-555 -126,-170 -216,-359 -356,-522 -168,-194 -477,-289 -631,-488 -136,-177 -535,-321 -294,-555 215,-209 509,-361 714,-573 175,-180 289,-392 442,-588 137,-176 293,-396 588,-421 l 41,-34"
                 id="path3477"
                 inkscape:connector-curvature="0"
                 style="fill:none;stroke:#000000;stroke-width:212;stroke-linejoin:round" /></g></g><g
             class="com.sun.star.drawing.LineShape"
             id="g3479"><g
               id="id5"><path
                 d="m 4364,20963 0,4200"
                 id="path3482"
                 inkscape:connector-curvature="0"
                 style="fill:none;stroke:#000000;stroke-width:159;stroke-linejoin:round" /></g></g></g></g></g></g></svg>